<?xml version="1.0" standalone="no"?><!DOCTYPE svg PUBLIC "-//W3C//DTD SVG 1.1//EN" "http://www.w3.org/Graphics/SVG/1.1/DTD/svg11.dtd"><svg t="1515897784038" class="icon" style="" viewBox="0 0 1024 1024" version="1.1" xmlns="http://www.w3.org/2000/svg" p-id="2508" xmlns:xlink="http://www.w3.org/1999/xlink" width="200" height="200"><defs><style type="text/css"></style></defs><path d="M890.88 364.373333c-13.653333-3.413333-29.013333-5.973333-46.08-5.973333h-33.28c-0.853333 6.826667-86.186667 0-86.186667 0l11.946667-85.333333c4.266667-52.053333 5.12-106.666667 5.12-145.066667 0-70.826667-57.173333-128-128-128S486.4 57.173333 486.4 128v25.6c0 136.533333-107.52 249.173333-243.2 256H102.4C46.08 409.6 0 455.68 0 512v409.6c0 56.32 46.08 102.4 102.4 102.4h665.6l5.12-0.853333c43.52-1.706667 83.626667-25.6 105.813333-63.146667 0.853333-0.853333 0.853333-2.56 1.706667-3.413333 5.12-11.946667 115.2-290.133333 137.386667-372.906667 25.6-95.573333-31.573333-193.706667-127.146667-219.306667zM221.866667 938.666667H102.4c-9.386667 0-17.066667-7.68-17.066667-17.066667V512c0-9.386667 7.68-17.066667 17.066667-17.066667h119.466667v443.733334z m713.386666-377.173334c-8.533333 32.426667-34.986667 106.666667-72.533333 204.8-13.653333 35.84-27.306667 72.533333-41.813333 107.52-5.12 12.8-9.386667 24.746667-13.653334 34.986667-1.706667 4.266667-3.413333 7.68-4.266666 11.093333-7.68 10.24-19.626667 17.066667-35.84 17.92H307.2V486.4c151.893333-34.986667 264.533333-171.52 264.533333-332.8v-25.6c0-23.893333 18.773333-42.666667 42.666667-42.666667s42.666667 18.773333 42.666667 42.666667c0 84.48-5.12 162.986667-15.36 212.48L618.666667 443.733333l226.133333 0.853334c10.24 0 17.92 0.853333 23.893333 2.56 50.346667 12.8 80.213333 64.853333 66.56 114.346666z" fill="#4990EE" p-id="2509"></path></svg>